<?xml version="1.0" standalone="no"?>
<!DOCTYPE svg PUBLIC "-//W3C//DTD SVG 20010904//EN"
 "http://www.w3.org/TR/2001/REC-SVG-20010904/DTD/svg10.dtd">
<svg version="1.0" xmlns="http://www.w3.org/2000/svg"
 width="16.000000pt" height="16.000000pt" viewBox="0 0 16.000000 16.000000"
 preserveAspectRatio="xMidYMid meet">
<metadata>
Created by potrace 1.11, written by Peter Selinger 2001-2013
</metadata>
<g transform="translate(0.000000,16.000000) scale(0.004000,-0.004000)"
fill="#000000" stroke="none">
<path d="M0 2000 l0 -2000 2000 0 2000 0 0 2000 0 2000 -2000 0 -2000 0 0
-2000z m2142 1511 c162 -32 293 -98 421 -211 84 -74 185 -260 216 -401 7 -30
19 -76 28 -102 18 -59 10 -74 -11 -21 -9 22 -20 46 -26 54 -6 8 -28 51 -50 95
-22 44 -38 70 -34 58 3 -13 1 -23 -4 -23 -15 0 -23 29 -16 57 5 18 3 24 -5 19
-6 -4 -11 -14 -11 -22 0 -8 -8 -26 -17 -41 -10 -14 -17 -47 -18 -75 -1 -46 0
-47 12 -26 14 23 14 23 8 -4 -3 -16 -1 -28 4 -28 5 0 12 -8 15 -17 2 -10 8
-29 11 -42 5 -17 4 -21 -5 -16 -8 5 -11 2 -7 -11 3 -11 8 -36 12 -58 3 -21 8
-36 11 -33 10 10 12 47 3 52 -11 7 -12 25 -1 25 18 0 34 -60 24 -89 -8 -23 -7
-31 4 -35 8 -3 14 -12 14 -21 0 -12 12 -15 56 -15 l56 0 -7 33 c-4 17 -18 54
-31 81 -24 48 -27 69 -7 44 9 -11 63 -151 63 -164 0 -2 -33 -4 -74 -4 -68 0
-75 2 -82 22 -7 22 -7 22 -19 -3 -10 -18 -28 -29 -63 -38 -27 -6 -76 -23 -108
-36 -70 -29 -176 -33 -239 -9 -134 51 -256 67 -403 53 -181 -17 -278 -47 -297
-91 -11 -27 -17 -30 -66 -32 -43 -2 -64 -9 -99 -35 -38 -28 -46 -30 -48 -16
-5 24 -52 15 -151 -29 -43 -20 -83 -36 -89 -36 -6 0 -27 -16 -46 -35 -34 -34
-36 -34 -46 -15 -8 15 -8 37 0 77 12 69 12 66 -1 57 -9 -5 -10 4 -5 30 4 20 9
84 11 141 3 74 10 117 24 147 10 24 22 52 25 62 5 16 4 17 -9 6 -16 -14 -20
-3 -6 19 5 7 14 10 20 7 6 -4 11 -3 11 3 0 5 3 18 6 28 6 16 5 16 -9 -2 -48
-60 18 96 75 179 48 68 189 234 244 287 74 70 132 104 242 141 236 80 332 92
494 59z m498 -571 c-7 -17 -15 -28 -18 -26 -2 3 1 19 8 36 7 17 15 28 18 26 2
-3 -1 -19 -8 -36z m26 -17 c-10 -10 -19 5 -10 18 6 11 8 11 12 0 2 -7 1 -15
-2 -18z m34 17 c0 -5 -2 -10 -4 -10 -3 0 -8 5 -11 10 -3 6 -1 10 4 10 6 0 11
-4 11 -10z m13 -42 c6 -22 2 -36 -8 -26 -3 3 -7 15 -10 27 -5 28 11 27 18 -1z
m-43 -38 c0 -5 -4 -10 -10 -10 -5 0 -10 5 -10 10 0 6 5 10 10 10 6 0 10 -4 10
-10z m70 -37 c23 -60 23 -61 -4 -14 -28 47 -30 51 -18 51 4 0 14 -17 22 -37z
m-40 -30 c0 -7 6 -13 13 -13 13 0 73 -148 63 -157 -3 -3 -11 7 -18 23 -7 16
-15 31 -18 34 -3 3 -6 18 -8 35 -2 16 -8 36 -13 45 -6 10 -7 4 -3 -17 4 -18 4
-33 1 -33 -10 0 -46 88 -44 109 1 21 2 21 14 5 7 -10 13 -24 13 -31z m40 -145
c0 -6 7 -20 17 -30 21 -24 4 -23 -24 1 -26 22 -30 41 -8 41 8 0 15 -5 15 -12z
m-680 -108 c87 -11 162 -30 199 -50 20 -10 30 -50 13 -50 -9 0 -35 -55 -47
-98 -4 -12 -9 -20 -13 -18 -4 2 -7 -6 -8 -17 0 -12 -4 -31 -8 -42 -4 -11 6 3
23 30 17 28 34 67 37 88 4 20 10 40 15 43 10 6 1 -46 -18 -100 -7 -22 -11 -41
-9 -43 2 -3 17 35 33 83 26 83 30 88 61 96 19 5 52 8 74 6 l40 -3 4 -48 c3
-47 54 -178 80 -208 8 -8 14 -22 13 -30 0 -8 -5 -4 -11 9 -10 19 -28 31 -28
17 0 -45 40 -210 66 -275 19 -46 34 -98 34 -114 0 -30 -34 -84 -78 -122 -19
-17 -23 -28 -18 -49 5 -20 3 -26 -6 -23 -24 8 -19 32 17 92 41 69 41 86 0 24
-38 -56 -53 -68 -87 -68 -15 0 -28 -4 -28 -10 0 -5 14 -8 31 -6 23 3 29 0 25
-11 -3 -8 5 -35 19 -61 13 -26 27 -67 31 -91 6 -40 8 -42 21 -26 12 18 13 18
13 -2 0 -22 -42 -63 -91 -89 -16 -8 -29 -22 -29 -30 0 -14 -10 -15 -77 -8 -43
5 -112 8 -153 7 -41 -1 -67 2 -58 5 9 4 -22 8 -70 8 -128 2 -58 -16 83 -21 61
-2 149 -10 196 -16 83 -12 95 -11 162 16 12 5 17 2 18 -11 0 -18 1 -17 9 1 l9
20 0 -20 c1 -11 -13 -60 -30 -109 -16 -48 -28 -91 -25 -93 3 -3 8 8 12 23 4
16 16 47 26 69 l19 40 -6 -39 c-4 -22 -19 -63 -33 -90 -35 -66 -39 -79 -12
-38 26 39 34 41 26 6 -5 -18 -3 -24 5 -19 8 5 9 1 4 -14 -5 -16 -3 -20 9 -15
9 3 16 13 16 21 0 8 5 11 10 8 6 -3 7 -18 4 -33 -4 -19 -3 -23 4 -14 7 11 12
6 21 -19 6 -17 11 -42 11 -55 0 -13 5 -26 10 -29 6 -3 10 -18 11 -33 l1 -27
13 30 c21 45 18 16 -5 -50 -11 -32 -18 -60 -16 -63 3 -2 19 27 37 64 25 53 33
64 36 47 10 -51 -67 -153 -161 -214 -103 -67 -193 -84 -496 -95 -134 -5 -153
-4 -249 21 -58 14 -120 33 -139 41 -59 24 -170 103 -211 151 -80 90 -160 255
-191 393 -23 106 -98 300 -128 333 -9 11 -42 32 -73 48 -79 39 -99 68 -99 139
0 31 -5 82 -10 113 -6 30 -14 116 -19 189 -11 177 6 212 99 201 24 -3 54 4 93
21 57 25 80 44 31 26 -36 -14 -43 -13 -40 8 3 25 62 51 163 71 48 10 104 25
123 33 43 19 158 46 165 40 3 -3 5 -16 5 -28 0 -13 4 -25 9 -29 6 -3 7 16 4
49 -9 85 17 101 205 130 110 18 175 19 282 6z m743 3 c-7 -2 -13 -11 -13 -19
0 -17 -31 -19 -48 -2 -9 9 -12 9 -12 0 0 -7 5 -12 11 -12 6 0 9 -7 5 -15 -3
-8 -1 -15 3 -15 5 0 11 6 14 13 3 6 12 -4 20 -23 8 -19 12 -39 9 -45 -4 -5 -8
2 -10 18 -2 15 -8 27 -13 27 -14 0 -11 -34 6 -56 20 -26 19 -37 -2 -26 -10 5
-52 17 -93 27 -111 26 -112 26 -95 49 8 11 18 16 22 12 4 -4 1 -11 -7 -16 -8
-5 -12 -11 -9 -14 2 -3 11 -1 19 4 11 7 12 13 1 37 -10 23 -14 25 -21 12 -5
-9 -27 -24 -49 -34 -35 -16 -40 -21 -36 -44 5 -25 5 -25 -6 -4 -16 31 4 78 39
91 42 15 113 31 157 35 65 6 121 6 108 0z m-1328 -128 c-35 -16 -64 -20 -49
-6 10 10 39 18 64 19 8 0 2 -6 -15 -13z m1174 -9 c-2 -2 -26 -6 -53 -9 -30 -3
-43 -1 -35 4 13 8 97 13 88 5z m31 -48 c0 -9 3 -8 10 2 15 24 23 -12 9 -46 -8
-20 -13 -24 -16 -14 -3 8 -8 27 -13 43 -6 16 -5 27 1 27 5 0 9 -6 9 -12z
m-150 -33 c0 -5 -5 -3 -10 5 -5 8 -10 20 -10 25 0 6 5 3 10 -5 5 -8 10 -19 10
-25z m-1460 -75 c-6 -12 -14 -20 -17 -17 -2 3 1 14 8 26 17 26 24 19 9 -9z
m1434 -646 c9 -8 16 -25 16 -37 0 -19 -3 -17 -20 11 -28 45 -26 57 4 26z m16
-229 c0 -2 -10 -10 -22 -16 -21 -11 -22 -11 -9 4 13 16 31 23 31 12z m-1327
-132 c26 -109 29 -157 4 -60 -12 48 -26 85 -30 81 -4 -4 -7 5 -7 19 0 49 17
28 33 -40z m-23 -48 c0 -14 -2 -25 -4 -25 -2 0 -6 11 -8 25 -3 14 -1 25 3 25
5 0 9 -11 9 -25z m20 -110 c0 -5 -5 -3 -10 5 -5 8 -10 20 -10 25 0 6 5 3 10
-5 5 -8 10 -19 10 -25z m1433 -52 c7 -39 1 -40 -11 -4 -6 17 -7 31 -3 31 5 0
11 -12 14 -27z m14 -85 c-3 -7 -5 -2 -5 12 0 14 2 19 5 13 2 -7 2 -19 0 -25z
m-887 -368 c0 -5 -2 -10 -4 -10 -3 0 -8 5 -11 10 -3 6 -1 10 4 10 6 0 11 -4
11 -10z"/>
<path d="M2657 3102 c15 -28 29 -49 31 -47 5 5 -37 83 -48 90 -6 4 2 -16 17
-43z"/>
<path d="M2620 3053 c0 -13 5 -23 10 -23 13 0 13 11 0 30 -8 12 -10 11 -10 -7z"/>
<path d="M2617 3001 c-4 -17 -3 -21 5 -13 5 5 8 16 6 23 -3 8 -7 3 -11 -10z"/>
<path d="M1052 2691 c-7 -19 -10 -36 -7 -39 6 -7 26 49 22 62 -2 6 -9 -5 -15
-23z"/>
<path d="M1920 2430 c-14 -4 6 -5 47 -2 l73 5 41 -47 c22 -25 44 -46 48 -46
17 0 -3 60 -27 82 -14 13 -22 17 -18 11 8 -15 -10 -18 -19 -3 -7 12 -108 12
-145 0z"/>
<path d="M1825 2405 c-39 -18 -31 -18 25 -1 25 8 36 15 25 15 -11 0 -33 -6
-50 -14z"/>
<path d="M2305 2394 c-9 -43 -42 -112 -74 -153 -15 -20 -38 -54 -50 -76 l-23
-40 32 35 c64 72 146 238 126 257 -3 3 -8 -8 -11 -23z"/>
<path d="M1871 2374 c-34 -7 -88 -29 -120 -47 -31 -18 -69 -40 -86 -49 -16 -9
-31 -22 -33 -30 -2 -9 -1 -9 5 -2 4 6 45 30 90 52 l81 40 7 -34 c8 -43 41 -58
104 -49 l43 7 -4 54 -5 54 33 0 c17 0 42 -9 55 -20 l24 -20 -24 -19 -25 -19
32 4 c24 3 30 0 26 -11 -9 -22 4 -18 16 6 10 17 6 25 -26 55 -21 19 -45 34
-55 34 -9 0 -29 2 -45 4 -16 3 -58 -2 -93 -10z m75 -91 c-10 -26 -18 -8 -9 23
5 21 8 24 11 11 2 -10 1 -25 -2 -34z m-91 -3 c3 -5 1 -10 -4 -10 -6 0 -11 5
-11 10 0 6 2 10 4 10 3 0 8 -4 11 -10z m42 -6 c-3 -3 -12 -4 -19 -1 -8 3 -5 6
6 6 11 1 17 -2 13 -5z"/>
<path d="M1653 2319 c-18 -12 -33 -23 -33 -25 0 -7 58 25 65 36 9 14 5 13 -32
-11z"/>
<path d="M1248 2293 c6 -2 18 -2 25 0 6 3 1 5 -13 5 -14 0 -19 -2 -12 -5z"/>
<path d="M2049 2226 c-58 -40 -111 -59 -179 -66 l-65 -7 73 -1 c40 -1 72 2 72
8 0 5 18 15 40 21 21 7 54 25 72 40 41 35 35 37 -13 5z"/>
<path d="M946 2145 c4 -8 18 -15 33 -15 25 1 25 1 7 15 -26 19 -47 19 -40 0z"/>
<path d="M971 2063 c-7 -32 -15 -67 -17 -78 -4 -16 -3 -17 4 -5 12 18 36 130
29 136 -2 2 -9 -22 -16 -53z"/>
<path d="M1072 1965 c0 -16 2 -22 5 -12 2 9 2 23 0 30 -3 6 -5 -1 -5 -18z"/>
<path d="M1062 1890 c0 -19 2 -27 5 -17 2 9 2 25 0 35 -3 9 -5 1 -5 -18z"/>
<path d="M1055 1840 c3 -5 8 -10 11 -10 2 0 4 5 4 10 0 6 -5 10 -11 10 -5 0
-7 -4 -4 -10z"/>
<path d="M2295 1739 c-38 -20 -72 -46 -50 -38 48 18 105 45 105 52 0 12 -13 8
-55 -14z"/>
<path d="M2415 1630 c3 -5 8 -10 11 -10 2 0 4 5 4 10 0 6 -5 10 -11 10 -5 0
-7 -4 -4 -10z"/>
<path d="M2281 1386 c2 -2 29 -6 59 -9 34 -3 47 -2 35 3 -19 8 -103 14 -94 6z"/>
<path d="M2178 1363 c7 -3 16 -2 19 1 4 3 -2 6 -13 5 -11 0 -14 -3 -6 -6z"/>
<path d="M2500 1252 c0 -7 -9 -21 -20 -32 -13 -13 -16 -20 -7 -20 15 0 42 49
32 58 -3 3 -5 0 -5 -6z"/>
<path d="M2452 1163 c-6 -3 -10 -8 -7 -13 3 -5 0 -21 -5 -36 -16 -42 -3 -41
15 2 17 41 16 53 -3 47z"/>
<path d="M1348 973 c23 -32 98 -107 143 -142 36 -28 161 -91 179 -90 8 0 -7 9
-33 20 -79 32 -158 87 -236 167 -41 42 -65 62 -53 45z"/>
<path d="M2537 971 c-4 -17 -3 -21 5 -13 5 5 8 16 6 23 -3 8 -7 3 -11 -10z"/>
<path d="M1520 975 c0 -9 93 -94 153 -139 27 -21 88 -61 135 -89 48 -29 80
-53 72 -55 -8 -1 -53 9 -100 22 -46 14 -86 23 -88 21 -7 -6 154 -54 225 -66
37 -6 101 -22 141 -35 40 -13 83 -24 95 -23 12 0 -5 8 -38 18 -33 10 -95 34
-139 54 -43 21 -83 37 -89 37 -20 0 -233 144 -299 202 -38 33 -68 57 -68 53z"/>
<path d="M2562 778 c-8 -24 -23 -53 -35 -66 -16 -18 -18 -22 -5 -17 20 8 61
88 56 110 -2 9 -9 -3 -16 -27z"/>
<path d="M2330 640 c-8 -5 -10 -10 -5 -10 6 0 17 5 25 10 8 5 11 10 5 10 -5 0
-17 -5 -25 -10z"/>
</g>
</svg>
